<svg width="170" height="170" viewBox="0 0 170 170" fill="none" xmlns="http://www.w3.org/2000/svg">
<path d="M85.0002 34.7C64.2002 34.7 47.2002 51.6 47.2002 72.5C47.2002 76.7 47.9002 80.8 49.2002 84.8C50.1002 87.5 53.1002 88.9999 55.9002 88.0999C58.6002 87.1999 60.1002 84.2 59.2002 81.4C58.1002 78.3 57.6002 74.9999 57.7002 71.6999C58.1002 57.5999 69.5002 45.9999 83.6002 45.2999C99.3002 44.4999 112.3 57 112.3 72.5C112.3 87 100.9 98.9 86.6002 99.7C86.6002 99.7 81.3002 99.9999 78.7002 100.4C77.4002 100.6 76.4002 100.8 75.7002 100.9C75.4002 101 75.1002 100.7 75.2002 100.4L76.1002 96L81.0002 73.4C81.6002 70.6 79.8002 67.7999 77.0002 67.1999C74.2002 66.5999 71.4002 68.3999 70.8002 71.1999C70.8002 71.1999 59.0002 126.2 58.9002 126.8C58.3002 129.6 60.1002 132.4 62.9002 133C65.7002 133.6 68.5002 131.8 69.1002 129C69.2002 128.4 70.8002 121.1 70.8002 121.1C72.0002 115.5 76.6002 111.4 82.0002 110.7C83.2002 110.5 87.9002 110.2 87.9002 110.2C107.4 108.7 122.8 92.4 122.8 72.5C122.8 51.6 105.8 34.7 85.0002 34.7Z" fill="black"/>
<path d="M87.7 121.7C84.3 121 80.9 123.1 80.2 126.6C79.5 130 81.6 133.4 85.1 134.1C88.5 134.8 91.9 132.7 92.6 129.2C93.3 125.7 91.2 122.4 87.7 121.7Z" fill="#E6007A"/>
<rect x="0.5" y="0.5" width="169" height="169" rx="84.5" stroke="#888888"/>
</svg>
