<svg width="170" height="170" viewBox="0 0 170 170" fill="none" xmlns="http://www.w3.org/2000/svg">
<circle cx="85" cy="85" r="84.5" stroke="#888888"/>
<path d="M133.161 46.0613C131.289 44.585 129.057 42.5687 124.988 42.0647C121.172 41.5606 117.283 44.117 114.655 45.8092C112.026 47.5015 107.058 52.4702 105.005 53.9824C102.953 55.4947 97.6962 56.8989 89.2349 61.9756C80.7737 67.0524 47.5767 88.3676 47.5767 88.3676L56.218 88.4756L17.6923 108.315H21.5448L16 112.527C16 112.527 20.8967 113.823 25.0013 111.231V112.419C25.0013 112.419 70.8722 94.3445 79.7295 99.0252L74.3287 100.609C74.7968 100.609 83.5101 101.185 83.5101 101.185C83.5101 101.185 83.7981 106.622 89.0549 110.115C94.3117 113.571 94.4197 115.48 94.4197 115.48C94.4197 115.48 91.6833 116.596 91.6833 118C91.6833 118 95.7159 116.776 99.4605 116.884C103.205 116.992 106.482 118 106.482 118C106.482 118 106.193 116.488 102.557 115.48C98.8844 114.435 95.3199 110.511 93.5556 108.351C91.7913 106.19 90.5671 102.338 92.0794 98.4851C93.3396 95.2086 97.7322 93.4083 106.806 88.7276C117.499 83.1828 119.948 79.0782 121.46 75.8737C122.972 72.6692 125.204 66.2963 126.464 63.3078C128.049 59.4553 129.993 57.4029 131.613 56.1788C133.197 54.9546 140.435 52.2542 140.435 52.2542C140.435 52.2542 134.926 47.4655 133.161 46.0613Z" fill="black"/>
</svg>
